<?xml version="1.0" encoding="UTF-8" standalone="no"?>
<svg
   xmlns:dc="http://purl.org/dc/elements/1.1/"
   xmlns:cc="http://creativecommons.org/ns#"
   xmlns:rdf="http://www.w3.org/1999/02/22-rdf-syntax-ns#"
   xmlns:svg="http://www.w3.org/2000/svg"
   xmlns="http://www.w3.org/2000/svg"
   xmlns:sodipodi="http://sodipodi.sourceforge.net/DTD/sodipodi-0.dtd"
   xmlns:inkscape="http://www.inkscape.org/namespaces/inkscape"
   width="64mm"
   height="64mm"
   viewBox="0 0 31.642195 31.639182"
   preserveAspectRatio="xMinYMin meet"
   version="1.1"
   id="svg8"
   sodipodi:docname="photosynthesis.svg"
   inkscape:version="1.0.1 (3bc2e813f5, 2020-09-07)">
  <metadata
     id="metadata14">
    <rdf:RDF>
      <cc:Work
         rdf:about="">
        <dc:format>image/svg+xml</dc:format>
        <dc:type
           rdf:resource="http://purl.org/dc/dcmitype/StillImage" />
        <dc:title></dc:title>
      </cc:Work>
    </rdf:RDF>
  </metadata>
  <defs
     id="defs12" />
  <sodipodi:namedview
     pagecolor="#ffffff"
     bordercolor="#666666"
     borderopacity="1"
     objecttolerance="10"
     gridtolerance="10"
     guidetolerance="10"
     inkscape:pageopacity="0"
     inkscape:pageshadow="2"
     inkscape:window-width="1867"
     inkscape:window-height="1024"
     id="namedview10"
     showgrid="false"
     units="mm"
     inkscape:zoom="1.7239258"
     inkscape:cx="-52.11275"
     inkscape:cy="184.8993"
     inkscape:window-x="53"
     inkscape:window-y="27"
     inkscape:window-maximized="1"
     inkscape:current-layer="svg8" />
  <g
     id="g910"
     transform="translate(-0.177093)">
    <path
       d="m 7.1475638,19.340137 c 0.2461007,2.11163 2.7881783,4.921327 4.3123682,5.892796 0.05139,-0.841036 -0.127041,-0.398005 -0.113252,-1.233966 1.481535,2.026554 4.605215,2.283129 5.66932,2.357335 -0.463545,-0.293227 -0.839616,-0.621572 -0.93074,-1.062743 0.659956,-0.351483 2.753493,0.309582 4.358128,-0.337596 -0.559367,-0.193504 -0.813056,-0.344216 -1.027191,-0.803058 1.471968,-0.268143 3.044927,-0.460077 4.036759,-1.091319 -0.483961,-0.05668 -0.948492,-0.01245 -1.523081,-0.531808 1.354443,-0.5187 2.775429,-0.884988 3.959936,-1.792393 -0.652782,-0.100609 -1.359707,-0.182622 -1.533713,-0.449492 1.251528,-0.568255 2.332573,-1.240213 3.254679,-2.009047 -0.930577,-0.0078 -1.30496,-0.152903 -1.505864,-0.341141 0.991808,-0.784184 2.198568,-1.398551 2.87003,-2.435896 -0.710593,0.146617 -1.344615,0.156009 -1.748613,-0.24672 0.384374,-0.633113 1.711079,-0.864478 2.648015,-2.339023 -0.724963,-0.0229 -1.495772,-0.03447 -1.627522,-0.210264 0.508043,-1.31158 1.176688,-1.999276 1.837903,-2.7158324 C 28.555183,9.7692871 26.229445,9.4979442 26.351192,9.3820764 L 27.42403,8.5360868 C 25.979031,7.9397897 24.386872,8.2096568 23.229886,8.4132313 22.781594,7.9548321 23.353829,7.5222599 24.028784,7.0923063 22.734837,7.0976071 21.547238,7.2416862 20.456157,7.5103397 19.965593,6.9374179 20.946167,6.5543033 21.45397,6.1103634 19.440269,6.2291327 18.539835,6.6456802 17.644324,7.0633731 17.118211,6.4102764 17.747702,5.9942318 18.217553,5.5456433 16.664594,5.9030228 15.809661,6.5131356 14.915757,7.108831 14.690596,6.7058897 14.305832,6.3820064 14.927108,5.56036 13.796757,6.0309026 12.911862,6.6432328 12.222158,7.3682826 11.624616,6.8695494 11.961061,6.3365139 12.025056,5.8136784 10.816463,6.5619841 10.000168,7.4187988 9.0312914,8.2335832 8.8762715,8.0867404 8.7811563,7.645055 8.7350635,6.9593693 7.5163253,7.8702319 5.2775653,10.253833 5.3414318,13.666084 4.6489454,12.896867 5.2219608,13.607646 4.3959135,12.601113 c 0.1707499,1.15677 1.371855,5.854578 2.7516503,6.739024"
       fill="#75a928"
       id="path4"
       style="fill:#7bde7f;fill-opacity:1;stroke:#46a249;stroke-width:0.25154;stroke-opacity:1"
       sodipodi:nodetypes="ccccccccccccccccccccccccccccccccccc" />
    <g
       id="g864" />
    <text
       xml:space="preserve"
       style="font-style:normal;font-weight:normal;font-size:5.2325px;line-height:1.25;font-family:sans-serif;fill:#e67a73;fill-opacity:1;stroke:#c2352a;stroke-width:0.156975;stroke-miterlimit:4;stroke-dasharray:none;stroke-opacity:1"
       x="-3.5713017"
       y="9.4270954"
       id="text847"
       transform="rotate(-41.075533)"><tspan
         sodipodi:role="line"
         id="tspan845"
         x="-3.5713017"
         y="9.4270954"
         style="font-style:normal;font-variant:normal;font-weight:bold;font-stretch:normal;font-family:Serif;-inkscape-font-specification:Serif;fill:#e67a73;fill-opacity:1;stroke:#c2352a;stroke-width:0.156975;stroke-miterlimit:4;stroke-dasharray:none;stroke-opacity:1">CO<tspan
   style="font-size:65%;baseline-shift:sub;fill:#e67a73;fill-opacity:1;stroke:#c2352a;stroke-width:0.156975;stroke-miterlimit:4;stroke-dasharray:none;stroke-opacity:1"
   id="tspan853">2</tspan></tspan></text>
    <text
       xml:space="preserve"
       style="font-style:normal;font-variant:normal;font-weight:normal;font-stretch:normal;font-size:5.2325px;line-height:1.25;font-family:serif;-inkscape-font-specification:serif;fill:#e67a73;fill-opacity:1;stroke:#c2352a;stroke-width:0.156975;stroke-miterlimit:4;stroke-dasharray:none;stroke-opacity:1"
       x="1.8092157"
       y="37.41478"
       id="text851"
       transform="rotate(-31.819603)"><tspan
         sodipodi:role="line"
         id="tspan849"
         x="1.8092157"
         y="37.41478"
         style="font-style:normal;font-variant:normal;font-weight:bold;font-stretch:normal;font-family:serif;-inkscape-font-specification:serif;fill:#e67a73;fill-opacity:1;stroke:#c2352a;stroke-width:0.156975;stroke-miterlimit:4;stroke-dasharray:none;stroke-opacity:1">H<tspan
   style="font-size:65%;baseline-shift:sub;fill:#e67a73;fill-opacity:1;stroke:#c2352a;stroke-width:0.156975;stroke-miterlimit:4;stroke-dasharray:none;stroke-opacity:1"
   id="tspan855">2</tspan>O</tspan></text>
    <path
       style="fill:#ba96cc;fill-opacity:1;stroke:#8e53ab;stroke-width:0.261625;stroke-linecap:butt;stroke-linejoin:miter;stroke-miterlimit:4;stroke-dasharray:none;stroke-opacity:1"
       d="M 0.3679916,29.904215 C 9.0072973,14.367097 17.5038,2.7303878 31.365521,0.40376672 22.671085,7.9311549 18.240729,20.271827 1.9213564,31.315187 Z"
       id="path866"
       sodipodi:nodetypes="cccc" />
    <path
       style="fill:none;stroke:#8e53ab;stroke-width:0.130812px;stroke-linecap:butt;stroke-linejoin:miter;stroke-opacity:1"
       d="M 1.7836506,31.012676 C 14.634683,21.370277 21.836516,7.4468281 31.365521,0.40376672 21.113419,7.8159087 12.901873,19.493747 1.5309287,30.769258"
       id="path868"
       sodipodi:nodetypes="ccc" />
    <path
       style="fill:none;stroke:#8e53ab;stroke-width:0.261625;stroke-linecap:butt;stroke-linejoin:miter;stroke-miterlimit:4;stroke-dasharray:none;stroke-opacity:1"
       d="M 1.2576202,30.503381 C 13.171229,15.635581 23.686637,4.392546 31.365522,0.40376673"
       id="path870"
       sodipodi:nodetypes="cc" />
    <path
       style="fill:none;stroke:#8e53ab;stroke-width:0.130812px;stroke-linecap:butt;stroke-linejoin:miter;stroke-opacity:1"
       d="M 0.73695472,30.06628 C 9.9013596,16.00224 18.836145,3.8223929 31.365522,0.40376673"
       id="path872"
       sodipodi:nodetypes="cc" />
    <path
       style="fill:none;stroke:#8e53ab;stroke-width:0.130812;stroke-linecap:butt;stroke-linejoin:miter;stroke-miterlimit:4;stroke-dasharray:none;stroke-opacity:1"
       d="M 31.365522,0.40376673 C 18.977012,6.1003272 10.899512,16.987637 0.98392468,30.277934"
       id="path874"
       sodipodi:nodetypes="cc" />
    <text
       xml:space="preserve"
       style="font-style:normal;font-weight:normal;font-size:3.48833px;line-height:1.25;font-family:sans-serif;fill:#000000;fill-opacity:1;stroke:none;stroke-width:0.130812"
       x="-19.944296"
       y="22.992846"
       id="text878"
       transform="rotate(-46.481272)"><tspan
         sodipodi:role="line"
         id="tspan876"
         x="-19.944296"
         y="22.992846"
         style="font-style:normal;font-variant:normal;font-weight:bold;font-stretch:normal;font-size:3.48833px;font-family:serif;-inkscape-font-specification:serif;stroke-width:0.130812">C<tspan
   style="font-size:65%;baseline-shift:sub"
   id="tspan884">3</tspan>/C<tspan
   style="font-size:65%;baseline-shift:sub"
   id="tspan886">4</tspan></tspan></text>
    <text
       xml:space="preserve"
       style="font-style:normal;font-weight:normal;font-size:5.2325px;line-height:1.25;font-family:sans-serif;fill:#000000;fill-opacity:1;stroke:none;stroke-width:0.130812"
       x="14.848749"
       y="23.606661"
       id="text882"
       transform="rotate(-28.159699)"><tspan
         sodipodi:role="line"
         id="tspan880"
         x="14.848749"
         y="23.606661"
         style="font-style:normal;font-variant:normal;font-weight:bold;font-stretch:normal;font-size:3.48833px;font-family:serif;-inkscape-font-specification:serif;stroke-width:0.130812">C<tspan
   style="font-size:65%;baseline-shift:sub"
   id="tspan888">3</tspan></tspan></text>
  </g>
</svg>
