<?xml version="1.0" encoding="UTF-8" standalone="no"?>
<svg
   xmlns:dc="http://purl.org/dc/elements/1.1/"
   xmlns:cc="http://creativecommons.org/ns#"
   xmlns:rdf="http://www.w3.org/1999/02/22-rdf-syntax-ns#"
   xmlns:svg="http://www.w3.org/2000/svg"
   xmlns="http://www.w3.org/2000/svg"
   xmlns:sodipodi="http://sodipodi.sourceforge.net/DTD/sodipodi-0.dtd"
   xmlns:inkscape="http://www.inkscape.org/namespaces/inkscape"
   id="Layer_1_1_"
   style="enable-background:new 0 0 64 64;"
   version="1.1"
   viewBox="0 0 64 64"
   xml:space="preserve"
   sodipodi:docname="land.svg"
   inkscape:version="1.0.1 (3bc2e813f5, 2020-09-07)"><metadata
     id="metadata53"><rdf:RDF><cc:Work
         rdf:about=""><dc:format>image/svg+xml</dc:format><dc:type
           rdf:resource="http://purl.org/dc/dcmitype/StillImage" /><dc:title /></cc:Work></rdf:RDF></metadata><defs
     id="defs51" /><sodipodi:namedview
     pagecolor="#ffffff"
     bordercolor="#666666"
     borderopacity="1"
     objecttolerance="10"
     gridtolerance="10"
     guidetolerance="10"
     inkscape:pageopacity="0"
     inkscape:pageshadow="2"
     inkscape:window-width="1867"
     inkscape:window-height="1024"
     id="namedview49"
     showgrid="false"
     inkscape:zoom="9.2144852"
     inkscape:cx="18.239014"
     inkscape:cy="40.037444"
     inkscape:window-x="53"
     inkscape:window-y="27"
     inkscape:window-maximized="1"
     inkscape:current-layer="Layer_1_1_"
     inkscape:document-rotation="0" /><g
     id="g983"><g
       id="g949"
       transform="translate(2e-7,1.7000007)"><path
         id="path4"
         d="m 35.918364,44.03929 -0.538774,-7.388656 2.706121,-2.895199 1.971428,-2.109174 2.730612,-2.9214 c -0.195918,-0.06549 -0.379591,-0.144099 -0.563265,-0.235808 -0.07347,-0.03929 -0.146943,-0.0786 -0.220408,-0.117898 -0.07347,-0.03929 -0.134688,-0.0786 -0.208163,-0.131007 -0.306123,-0.209607 -0.57551,-0.458516 -0.820409,-0.733627 -0.03673,-0.0524 -0.08571,-0.104806 -0.122452,-0.144099 -0.06122,-0.0786 -0.122452,-0.1703 -0.183673,-0.248909 -0.04898,-0.06549 -0.08571,-0.131007 -0.134688,-0.209606 -0.171433,-0.28821 -0.306123,-0.602621 -0.416328,-0.930132 v 0 l -5.17959,4.624459 -0.440816,-6.09171 v 0 0 c -0.03673,0.0262 -0.06122,0.0524 -0.09796,0.0786 l -0.55102,0.353711 c -0.03674,0.0262 -0.07347,0.03931 -0.110197,0.06551 -0.03673,0.0262 -0.07347,0.03929 -0.122452,0.0524 -0.03673,0.01309 -0.07347,0.03929 -0.122453,0.0524 -0.03674,0.01309 -0.07347,0.03931 -0.122452,0.0524 -0.07347,0.0262 -0.159178,0.0524 -0.232651,0.0786 -0.03675,0.01309 -0.08571,0.0262 -0.122452,0.03929 -0.08571,0.0262 -0.171433,0.03931 -0.257142,0.06549 -0.03674,0.01309 -0.08571,0.01309 -0.122452,0.0262 -0.134688,0.0262 -0.269389,0.03929 -0.416328,0.03929 -0.06122,0 -0.110198,0 -0.171433,0 -0.134688,0 -0.257144,0 -0.391837,-0.0262 -0.122452,-0.01309 -0.257142,-0.03931 -0.379593,-0.06549 -0.02449,0 -0.04898,-0.01309 -0.08571,-0.01309 -0.355104,-0.07861 -0.710205,-0.209609 -1.028572,-0.393014 -0.06122,-0.03931 -0.122452,-0.0786 -0.183674,-0.117897 0,0 0,0 -0.01224,0 -0.09796,-0.06549 -0.195918,-0.131008 -0.293878,-0.196506 -0.03673,-0.0262 -0.06122,-0.03931 -0.08571,-0.06549 0,0 0,0 0,0 v 0 l -0.440817,6.09171 -0.783673,-0.707425 -4.702042,-4.205246 -0.306121,0.838431 c -0.01224,0.03929 -0.03674,0.0786 -0.06122,0.117897 l -0.183675,0.327512 c -0.02449,0.03929 -0.04898,0.06549 -0.07347,0.104806 l -0.293891,0.392981 c -0.04898,0.06551 -0.110197,0.131007 -0.171432,0.196508 -0.04898,0.0524 -0.09796,0.104806 -0.146943,0.144098 -0.03673,0.03931 -0.07347,0.06549 -0.110198,0.0917 -0.01224,0.01309 -0.03673,0.0262 -0.04898,0.0524 -0.318368,0.275111 -0.685715,0.497818 -1.077551,0.655024 v 0 l 3.342855,3.576424 c 0.220408,0.366812 0.526531,0.681223 0.869388,0.930132 l 3.293878,3.524021 -0.538776,7.349354 -0.159179,2.266379 -1.126531,15.720543 H 37.228568 L 36.065303,46.017448 Z"
         class="st0"
         inkscape:connector-curvature="0"
         style="fill:#7bde7f;fill-opacity:1;stroke-width:0.126655" /><path
         id="path6-4"
         d="m 48.616322,42.689943 c -0.03673,0.03929 -0.07347,0.0786 -0.110197,0.117897 -1.261225,1.349347 -2.938777,2.096072 -4.714286,2.096072 -0.257143,0 -0.526531,-0.01309 -0.783675,-0.0524 L 42.885712,46.52837 42.02857,58.371179 h 7.726529 L 48.885711,46.436663 Z"
         class="st0"
         inkscape:connector-curvature="0"
         style="fill:#ba96cc;fill-opacity:1;stroke-width:0.126655" /><path
         id="path8-0"
         d="M 53.906118,33.519627 C 52.975506,33.218316 52.228567,32.44539 51.922444,31.462854 l -0.183673,0.170301 v 0 c -0.06122,0.406114 -0.159178,0.812229 -0.293877,1.205243 -0.306123,0.890829 -0.795919,1.703058 -1.420408,2.35808 0.232652,0.655024 0.379591,1.336247 0.428572,2.043671 z"
         class="st0"
         inkscape:connector-curvature="0"
         style="fill:#ba96cc;fill-opacity:1;stroke:#8e53ab;stroke-width:1;stroke-miterlimit:4;stroke-dasharray:none;stroke-opacity:1" /><path
         id="path10-4"
         d="m 61.999994,30.847133 c 0,-1.965067 -1.334693,-3.589523 -3.097958,-3.903934 0.220408,-0.786027 0.183674,-1.650657 -0.159179,-2.436685 -0.195918,-0.471616 -0.489795,-0.86463 -0.832652,-1.179041 0.759183,-1.506551 0.55102,-3.419219 -0.636734,-4.676861 -1.297961,-1.388649 -3.318369,-1.532754 -4.763266,-0.419215 -0.306121,-0.589519 -0.771428,-1.100438 -1.359183,-1.42795 0.159178,0.589522 0.244898,1.218344 0.244898,1.834065 2.363265,1.113537 3.967346,3.641926 3.967346,6.524026 0,1.951966 -0.759184,3.77293 -2.008162,5.082975 l 0.208163,0.655023 c 0.134688,0.419214 0.45306,0.759826 0.857142,0.89083 l 2.742857,0.890832 -6.991835,7.480358 0.355101,4.820967 c 0.428572,-0.01309 0.869388,-0.117897 1.285714,-0.314411 0.440817,-0.209607 0.808164,-0.524018 1.102041,-0.890832 1.408162,0.812229 3.195919,0.589522 4.383672,-0.681223 1.297959,-1.388648 1.432653,-3.550222 0.391838,-5.096076 0.67347,-0.393013 1.212244,-1.021835 1.493877,-1.847163 0.171432,-0.484718 0.232653,-0.982536 0.195917,-1.467251 C 60.885715,34.161547 62,32.641896 62,30.847133 Z"
         class="st0"
         inkscape:connector-curvature="0"
         style="fill:#ba96cc;fill-opacity:1;stroke:#8e53ab;stroke-width:1;stroke-miterlimit:4;stroke-dasharray:none;stroke-opacity:1" /><path
         id="path12-9"
         d="m 13.559183,37.161553 c 0.03673,-0.524018 0.134688,-1.034937 0.281633,-1.545854 -0.208163,-0.288211 -0.379592,-0.589521 -0.538776,-0.917031 -0.03673,-0.0786 -0.08571,-0.183411 -0.122453,-0.275111 -0.342856,-0.799128 -0.526531,-1.663756 -0.551019,-2.528387 l -0.612246,-0.550219 v 0 l -0.07347,-0.06549 c 0,0 0,0.01309 0,0.01309 -0.257142,0.995636 -0.942857,1.794763 -1.82449,2.161577 z"
         class="st0"
         inkscape:connector-curvature="0"
         style="fill:#e67a73;fill-opacity:1;stroke:#c2352a;stroke-width:1;stroke-miterlimit:4;stroke-dasharray:none;stroke-opacity:1" /><path
         id="path14-1"
         d="m 21.065304,44.838418 c -0.281632,0.03929 -0.57551,0.06549 -0.857142,0.06549 -0.538775,0 -1.077551,-0.06549 -1.591837,-0.209606 -0.208163,-0.0524 -0.416326,-0.117898 -0.624489,-0.196508 -0.930612,-0.353711 -1.775511,-0.917031 -2.49796,-1.689958 -0.01224,-0.01309 -0.02449,-0.0262 -0.03673,-0.03931 l -0.269389,3.772932 -0.857142,11.842809 h 7.738774 L 21.200005,46.449756 Z"
         class="st0"
         inkscape:connector-curvature="0"
         style="fill:#e67a73;fill-opacity:1;stroke-width:0.126655" /><path
         id="path16-3"
         d="m 50.024486,31.436655 c 0.01224,-0.0524 0.01224,-0.0917 0.02449,-0.144099 0,-0.01309 0,-0.01309 0,-0.0262 0,0 0,-0.01309 0,-0.01309 0,0 0,-0.01309 0,-0.01309 0.01224,-0.0524 0.01224,-0.104806 0.01224,-0.157209 0.01224,-0.0524 0.01224,-0.104806 0.01224,-0.1703 0,-0.01309 0,-0.0262 0,-0.03929 0,-0.0524 0,-0.104806 0,-0.1703 l 1.199999,-1.061137 c 0,0 0,0 0,0 0,0 0.01224,0 0.01224,0 0.03674,-0.0262 0.07347,-0.0524 0.09796,-0.06549 0.01224,-0.01309 0.03673,-0.0262 0.04898,-0.03931 0.03674,-0.0262 0.06122,-0.0524 0.09796,-0.06549 0.01224,-0.01309 0.03673,-0.0262 0.04898,-0.03931 0.03675,-0.0262 0.07347,-0.0524 0.110198,-0.0917 0.03673,-0.0262 0.07347,-0.06549 0.110197,-0.104806 0.02449,-0.01309 0.03673,-0.03929 0.06122,-0.0524 0.02449,-0.0262 0.06122,-0.0524 0.08571,-0.0786 0.08571,-0.07861 0.171433,-0.1703 0.257143,-0.26201 0.03673,-0.03929 0.07347,-0.0786 0.110198,-0.131008 v 0 c 0,0 0,0 0,0 v 0 0 c 0.03673,-0.0524 0.08571,-0.104806 0.122452,-0.144098 0.01224,-0.01309 0.01224,-0.0262 0.02449,-0.03929 0.09796,-0.117897 0.183672,-0.248909 0.269387,-0.379913 0.04898,-0.06549 0.08571,-0.131008 0.122452,-0.196506 0.03673,-0.06549 0.07347,-0.117897 0.09796,-0.183411 0.01224,-0.01309 0.02449,-0.03931 0.02449,-0.0524 0.02449,-0.0524 0.04898,-0.0917 0.07347,-0.144099 0,0 0.01224,-0.01309 0.01224,-0.01309 0.01224,-0.01309 0.01224,-0.0262 0.02449,-0.03931 0,0 0,0 0,-0.01309 0,0 0.01224,-0.01309 0.01224,-0.01309 0.02449,-0.03929 0.03673,-0.0786 0.06122,-0.131008 0.01224,-0.0262 0.02449,-0.0524 0.03673,-0.0786 0.02449,-0.0524 0.04898,-0.104807 0.06122,-0.170301 0.01224,-0.0262 0.02449,-0.0524 0.03673,-0.0917 0.02449,-0.0524 0.03673,-0.104806 0.06122,-0.1703 0,0 0,0 0,-0.01309 0.02449,-0.06549 0.03673,-0.117897 0.04898,-0.183411 0.02449,-0.0786 0.03673,-0.157209 0.06122,-0.235808 0.01224,-0.06549 0.02449,-0.117898 0.03673,-0.170301 0,-0.0262 0.01224,-0.03931 0.01224,-0.06551 0.01224,-0.0524 0.02449,-0.117898 0.03673,-0.183411 v 0 c 0.01224,-0.0786 0.02449,-0.144099 0.02449,-0.222708 0,-0.0524 0.01224,-0.104806 0.01224,-0.157209 0,0 0,-0.01309 0,-0.0262 0,-0.0262 0.01224,-0.06549 0.01224,-0.09169 0,-0.01309 0,-0.01309 0,-0.0262 0,-0.03931 0,-0.0786 0.01224,-0.104806 0,-0.01309 0,-0.0262 0,-0.03931 0,-0.0786 0,-0.144099 0,-0.222708 0,-2.633191 -1.787754,-4.807866 -4.138775,-5.22708 0.293877,-1.048037 0.244898,-2.200877 -0.220409,-3.275113 -0.269387,-0.628822 -0.661224,-1.165941 -1.114284,-1.585156 0.07347,-0.144099 0.134688,-0.28821 0.195918,-0.445415 C 49.106019,12.637617 48.750918,10.318837 47.28153,8.7467818 45.542699,6.8864684 42.836578,6.6899625 40.88964,8.1834147 40.399843,7.227081 39.603924,6.4410535 38.575354,6.034939 37.963109,5.7991307 37.33862,5.7074292 36.738619,5.7598303 c -0.6,-2.1615745 -2.497959,-3.759831 -4.738775,-3.759831 -2.461225,0 -4.506121,1.9126675 -4.885713,4.4279534 C 26.134538,6.1135417 25.056987,6.1659449 24.052906,6.663761 23.465151,6.9519704 22.96311,7.3711857 22.571273,7.8559029 20.68556,6.7685653 18.297804,7.0698755 16.705967,8.7729343 c -1.469386,1.5720547 -1.824488,3.9039357 -1.05306,5.8297017 0.134688,0.340611 0.318368,0.681224 0.526531,0.995635 -0.893878,0.524017 -1.628572,1.375547 -2.008164,2.475985 -0.220408,0.655024 -0.306121,1.323146 -0.257142,1.965069 -2.044898,0.655021 -3.538775,2.685592 -3.538775,5.082975 0,0.0786 0,0.157209 0,0.235808 0,0.0786 0.01224,0.170301 0.01224,0.248909 0,0.0524 0.01224,0.117897 0.01224,0.170301 0,0 0,0.01309 0,0.01309 0,0.0262 0,0.03931 0.01224,0.06551 0.01224,0.117898 0.03674,0.235809 0.04898,0.340611 0,0.0262 0.01224,0.0524 0.01224,0.0917 0.03674,0.144098 0.06123,0.288209 0.110198,0.432314 0.02449,0.0786 0.04898,0.144099 0.07347,0.209608 0.02449,0.06549 0.04898,0.144099 0.07347,0.209607 0.07347,0.209607 0.171433,0.406115 0.269387,0.60262 0.03674,0.0655 0.06122,0.117898 0.09796,0.183411 0,0 0,0.01309 0.01224,0.01309 0.03673,0.06549 0.07347,0.117898 0.110198,0.170301 0.03674,0.06549 0.08571,0.117897 0.122452,0.183411 0.03674,0.0524 0.08571,0.117897 0.122452,0.1703 0,0 0,0 0,0 0.04898,0.06549 0.09796,0.131008 0.159178,0.196506 0,0 0,0 0,0 0,0 0,0 0,0 0.03673,0.0524 0.07347,0.0917 0.122453,0.131008 l 0.01224,0.01309 c 0.01224,0.01309 0.03673,0.03929 0.04898,0.0524 0.02449,0.0262 0.04898,0.0524 0.07347,0.07861 l 0.03674,0.0524 c 0,0 0.01224,0.01309 0.01224,0.01309 0.02449,0.0262 0.04898,0.0524 0.07347,0.06549 0.01224,0.01309 0.02449,0.0262 0.03674,0.03931 0.02449,0.0262 0.04898,0.0524 0.08571,0.0786 0.01224,0.01309 0.03673,0.0262 0.04898,0.03929 0.01224,0.01309 0.02449,0.01309 0.03673,0.0262 0.03674,0.0262 0.07347,0.06549 0.110198,0.0917 0.01224,0 0.01224,0.01309 0.02449,0.0262 0,0 0.01224,0.01309 0.01224,0.01309 0.04898,0.03931 0.09796,0.0786 0.146943,0.117898 0.01224,0.01309 0.03674,0.0262 0.04898,0.03929 0.04898,0.03931 0.08571,0.06549 0.134688,0.0917 0.06122,0.03929 0.110197,0.0786 0.171433,0.117897 0.03673,0.01309 0.06122,0.03931 0.09796,0.0524 0,0 0,0 0,0 v 0 l 1.420409,1.270743 c -0.07347,0.52402 -0.04898,1.074239 0.06122,1.624456 0.02449,0.117898 0.04898,0.22271 0.07347,0.327512 0.01224,0.0262 0.01224,0.0524 0.02449,0.07861 0.01224,0.0262 0.01224,0.0524 0.02449,0.0786 0.01224,0.03931 0.02449,0.07861 0.03675,0.117898 0.02449,0.0786 0.06122,0.157209 0.08571,0.235808 0.01224,0.03929 0.03674,0.0786 0.04898,0.117897 0.02449,0.06549 0.06122,0.131008 0.09796,0.196508 0.269389,0.537119 0.612245,1.008735 1.028571,1.388648 -0.612243,1.205241 -0.746939,2.62009 -0.416326,3.930135 l 0.269388,0.28821 -0.03673,0.432316 c 0.244897,0.58952 0.587755,1.15284 1.040815,1.637555 0.404083,0.432316 0.869388,0.786027 1.359185,1.034936 0.893876,0.458516 1.897958,0.615722 2.865305,0.458516 0.759183,-0.117897 1.506122,-0.432314 2.155102,-0.930132 0.416326,0.812229 1.053062,1.493452 1.861225,1.938867 0.08571,-0.0786 0.159179,-0.1703 0.232652,-0.262008 0.391837,0.235808 0.820408,0.379913 1.261225,0.432314 l 0.50204,-6.838437 -8.804081,-9.419225 2.461226,-1.008735 C 21.31,26.641858 21.836531,26.013038 22.020204,25.25321 l 0.685715,-2.777296 4.995918,4.454155 0.428571,-5.921405 2.510203,2.056772 c 0.293878,0.235808 0.612246,0.393014 0.967348,0.458516 h 0.01224 c 0.134688,0.0262 0.281632,0.03929 0.428571,0.03929 0.110198,0 0.220408,-0.01309 0.342857,-0.0262 0.391837,-0.0655 0.759182,-0.22271 1.07755,-0.484718 l 2.510203,-2.056772 0.428573,5.921406 4.567345,-4.061142 0.795918,2.54149 c 0.244899,0.759826 0.808164,1.349345 1.530613,1.585154 l 2.742858,0.890831 -4.751021,5.082976 -1.971429,2.109173 -2.142856,2.292578 0.477551,6.537127 0.02449,0.275109 c 0.171433,-0.0262 0.330611,-0.06549 0.489795,-0.117897 0.416326,0 0.844899,-0.06549 1.261226,-0.209607 0.183672,-0.06551 0.367347,-0.131008 0.538774,-0.222709 0.587755,-0.28821 1.089796,-0.707423 1.481633,-1.192141 0.538775,0.314411 1.114287,0.510917 1.70204,0.58952 1.481633,0.209609 3.024491,-0.288209 4.163266,-1.506551 0.489795,-0.52402 0.857142,-1.139741 1.102041,-1.794762 v 0 c 0.06122,-0.144099 0.110198,-0.301311 0.146942,-0.458516 0.428571,-1.532753 0.183673,-3.235813 -0.722449,-4.585159 0.06122,-0.03931 0.134689,-0.0786 0.195918,-0.131008 0.808164,-0.524019 1.457143,-1.336246 1.812245,-2.358082 0.01224,-0.03929 0.02449,-0.07861 0.03673,-0.131008 0,0 0,0 0,0 0.01224,-0.03931 0.02449,-0.0786 0.03673,-0.131008 0.01224,-0.03929 0.02449,-0.0917 0.03673,-0.144099 0.01224,-0.0524 0.02449,-0.104806 0.03674,-0.157209 0.01224,-0.0524 0.02449,-0.104806 0.03673,-0.15721 -0.01224,0 -0.01224,-0.01309 -0.01224,-0.0262 z"
         class="st0"
         inkscape:connector-curvature="0"
         style="fill:#7bde7f;fill-opacity:1;stroke:#46a249;stroke-width:1;stroke-miterlimit:4;stroke-dasharray:none;stroke-opacity:1" /><path
         id="path18-1"
         d="m 7.020408,32.7467 2.4612242,-1.008735 c 0.3918375,-0.157209 0.6857148,-0.510919 0.7836728,-0.930132 l 0.183675,-0.759826 c -1.1265318,-1.283846 -1.7999998,-3.013106 -1.7999998,-4.89957 0,-2.672493 1.4204068,-5.109177 3.5877538,-6.32752 0.06122,-0.458516 0.171433,-0.917032 0.318368,-1.362447 0.07347,-0.209606 0.159179,-0.419215 0.244897,-0.615721 -0.195918,0.0524 -0.404081,0.131008 -0.599999,0.222708 -0.440816,0.222707 -0.808163,0.524017 -1.102041,0.890832 C 9.6897952,17.14406 7.9020409,17.379868 6.7142852,18.637512 5.4163263,20.02616 5.2816327,22.187734 6.3224496,23.733588 5.6489797,24.126601 5.1102035,24.755423 4.8163277,25.580751 4.6448948,26.065468 4.5836743,26.563284 4.620408,27.048002 3.1142861,27.54582 1.9999998,29.052371 1.9999998,30.847133 c 0,1.965069 1.3346946,3.602626 3.0979603,3.903936 -0.2204082,0.786027 -0.1836744,1.650658 0.1591785,2.436683 0.1959197,0.471617 0.4897973,0.86463 0.8326539,1.179041 -0.7591845,1.493453 -0.5510196,3.419219 0.6367343,4.689964 1.2979589,1.388648 3.3183662,1.532752 4.7632642,0.419213 0.367347,0.720526 0.967348,1.296946 1.726532,1.598257 0.110198,0.03929 0.220408,0.0786 0.330611,0.104806 l 0.367348,-5.017473 v -0.03929 0 l -0.02449,-0.0262 z"
         class="st0"
         inkscape:connector-curvature="0"
         style="fill:#e67a73;fill-opacity:1;stroke:#c2352a;stroke-width:1;stroke-miterlimit:4;stroke-dasharray:none;stroke-opacity:1" /></g><text
       xml:space="preserve"
       style="font-style:normal;font-variant:normal;font-weight:normal;font-stretch:normal;font-size:10.0523px;line-height:1.25;font-family:serif;-inkscape-font-specification:serif;fill:#ba96cc;fill-opacity:1;stroke:#8e53ab;stroke-width:0.2;stroke-opacity:1;stroke-miterlimit:4;stroke-dasharray:none;"
       x="-9.5268784"
       y="15.934012"
       id="text912"
       transform="rotate(-48.21653)"><tspan
         sodipodi:role="line"
         id="tspan910"
         x="-9.5268784"
         y="15.934012"
         style="font-weight:bold;font-size:10.0523px;fill:#ba96cc;stroke-width:0.2;fill-opacity:1;stroke:#8e53ab;stroke-opacity:1;stroke-miterlimit:4;stroke-dasharray:none;">CO<tspan
   style="font-size:6.53397px;baseline-shift:sub;fill:#ba96cc;stroke-width:0.2;fill-opacity:1;stroke:#8e53ab;stroke-opacity:1;stroke-miterlimit:4;stroke-dasharray:none;"
   id="tspan914">2</tspan></tspan></text><text
       xml:space="preserve"
       style="font-style:normal;font-variant:normal;font-weight:normal;font-stretch:normal;font-size:9.05394px;line-height:1.25;font-family:serif;-inkscape-font-specification:serif;fill:#e67a73;fill-opacity:1;stroke:#c2352a;stroke-width:0.2;stroke-opacity:1;stroke-miterlimit:4;stroke-dasharray:none"
       x="37.446671"
       y="-22.947515"
       id="text912-3"
       transform="rotate(38.816242)"><tspan
         sodipodi:role="line"
         id="tspan910-9"
         x="37.446671"
         y="-22.947515"
         style="font-weight:bold;font-size:9.05394px;fill:#e67a73;stroke-width:0.2;fill-opacity:1;stroke:#c2352a;stroke-opacity:1;stroke-miterlimit:4;stroke-dasharray:none">H<tspan
   style="font-size:5.88506px;baseline-shift:sub;fill:#e67a73;stroke-width:0.2;fill-opacity:1;stroke:#c2352a;stroke-opacity:1;stroke-miterlimit:4;stroke-dasharray:none"
   id="tspan939">2</tspan>O</tspan></text></g></svg>
